<svg viewBox="0 0 512 512" xmlns="http://www.w3.org/2000/svg"><path d="M342.393 132.578a7.998 7.998 0 0 0-8 8V256a7.998 7.998 0 0 0 8 8h69.875a8 8 0 0 0 0-16h-61.875V140.578a7.998 7.998 0 0 0-8-8ZM62.861 288.5H189.85a8 8 0 0 0 0-16H62.861a8 8 0 0 0 0 16ZM110.596 239.492h79.254a8 8 0 0 0 0-16h-79.254a8 8 0 0 0 0 16Z" fill="#ffffff" class="fill-000000"></path><path d="M342.393 93.523a162.409 162.409 0 0 0-140.479 80.97h-43.588a8 8 0 0 0 0 16h48.168a7.745 7.745 0 0 0 2.233-.452c.047-.014.095-.014.143-.03a7.726 7.726 0 0 0 2.274-1.183c.177-.125.362-.217.529-.355a7.846 7.846 0 0 0 1.322-1.575 7.64 7.64 0 0 0 .597-.71 146.488 146.488 0 0 1 128.8-76.665c80.766 0 146.477 65.711 146.477 146.477s-65.71 146.477-146.476 146.477a146.464 146.464 0 0 1-128.868-76.79 7.533 7.533 0 0 0-.69-.826 7.834 7.834 0 0 0-1.066-1.275 7.707 7.707 0 0 0-1.227-.826 5.616 5.616 0 0 0-2.948-1.037 7.481 7.481 0 0 0-1.104-.223H15.13a8 8 0 1 0 0 16h186.783a162.388 162.388 0 0 0 140.48 80.977c89.59 0 162.476-72.883 162.476-162.477S431.982 93.523 342.393 93.523Z" fill="#ffffff" class="fill-000000"></path></svg>